# xmcd CD database file
#
# Track frame offsets:
#	150
#	14850
#	24675
#	42675
#	54900
#	69075
#	80625
#	93300
#	104850
#	118425
#	131100
#	147975
#	161775
#	173025
#	185700
#	197925
#	216300
#	227850
#	244650
#	253200
#	266625
#	279150
#
# Disc length: 3900 seconds
#
# Revision: 4
# Processed by: cddbd v1.5.2PL0 Copyright (c) Steve Scherf et al.
# Submitted via: jetAudio 7
#
DISCID=600f3a16
DTITLE=Floyd Cramer - The Piano Magic Of Floyd Cramer
DYEAR=1991
DGENRE=Instrumental
TTITLE0=Unchained Melody
TTITLE1=Music Box Dancer
TTITLE2=Memory
TTITLE3=Crazy
TTITLE4=The Rose
TTITLE5=The Most Beautiful Girl
TTITLE6=Spanish Eyes
TTITLE7=Hymne
TTITLE8=Song From ''Moulin Rouge'' ... ''Where Is Your Heart''
TTITLE9=Everything Is Beautiful
TTITLE10=Georgia On My Mind
TTITLE11=Beautiful Dreamer
TTITLE12=Sunrise Serenade
TTITLE13=Mona Lisa
TTITLE14=Make The World Go Away
TTITLE15=Danny Boy
TTITLE16=Don't It Make My Brown Eyes Blue
TTITLE17=Wind Beneath My Wings
TTITLE18=Rambling Rose
TTITLE19=You Don't Know Me
TTITLE20=You Belong To Me
TTITLE21=Only You
EXTD=YEAR: 1991
EXTT0=
EXTT1=
EXTT2=
EXTT3=
EXTT4=
EXTT5=
EXTT6=
EXTT7=
EXTT8=
EXTT9=
EXTT10=
EXTT11=
EXTT12=
EXTT13=
EXTT14=
EXTT15=
EXTT16=
EXTT17=
EXTT18=
EXTT19=
EXTT20=
EXTT21=
PLAYORDER=
